<svg width="265" height="48" viewBox="0 0 265 48" fill="none" xmlns="http://www.w3.org/2000/svg">
<path d="M34.7528 2.43137V11.1994H22.8488V47.3594H11.9048V11.1994H0.000843763V2.43137H34.7528ZM63.6053 24.3194C66.208 24.874 68.2987 26.1754 69.8773 28.2234C71.456 30.2287 72.2453 32.5327 72.2453 35.1354C72.2453 38.89 70.9227 41.8767 68.2773 44.0954C65.6747 46.2714 62.0267 47.3594 57.3333 47.3594H36.4053V2.43137H56.6293C61.1947 2.43137 64.7573 3.47671 67.3173 5.56737C69.92 7.65804 71.2213 10.4954 71.2213 14.0794C71.2213 16.7247 70.5173 18.922 69.1093 20.6714C67.744 22.4207 65.9093 23.6367 63.6053 24.3194ZM47.3493 20.6074H54.5173C56.3093 20.6074 57.6747 20.2234 58.6133 19.4554C59.5947 18.6447 60.0853 17.4714 60.0853 15.9354C60.0853 14.3994 59.5947 13.226 58.6133 12.4154C57.6747 11.6047 56.3093 11.1994 54.5173 11.1994H47.3493V20.6074ZM55.4133 38.5274C57.248 38.5274 58.656 38.122 59.6373 37.3114C60.6613 36.458 61.1733 35.242 61.1733 33.6634C61.1733 32.0847 60.64 30.8474 59.5733 29.9514C58.5493 29.0554 57.12 28.6074 55.2853 28.6074H47.3493V38.5274H55.4133ZM72.8968 24.8314C72.8968 20.394 73.8568 16.4474 75.7768 12.9914C77.6968 9.49271 80.3635 6.78337 83.7768 4.86337C87.2328 2.90071 91.1368 1.91937 95.4888 1.91937C100.822 1.91937 105.388 3.32737 109.185 6.14337C112.982 8.95937 115.521 12.7994 116.801 17.6634H104.769C103.873 15.786 102.593 14.3567 100.929 13.3754C99.3075 12.394 97.4515 11.9034 95.3608 11.9034C91.9902 11.9034 89.2595 13.0767 87.1688 15.4234C85.0782 17.77 84.0328 20.906 84.0328 24.8314C84.0328 28.7567 85.0782 31.8927 87.1688 34.2394C89.2595 36.586 91.9902 37.7594 95.3608 37.7594C97.4515 37.7594 99.3075 37.2687 100.929 36.2874C102.593 35.306 103.873 33.8767 104.769 31.9994H116.801C115.521 36.8634 112.982 40.7034 109.185 43.5194C105.388 46.2927 100.822 47.6794 95.4888 47.6794C91.1368 47.6794 87.2328 46.7194 83.7768 44.7994C80.3635 42.8367 77.6968 40.1274 75.7768 36.6714C73.8568 33.2154 72.8968 29.2687 72.8968 24.8314ZM141.615 11.2634C145.711 11.2634 148.996 12.6287 151.471 15.3594C153.946 18.0474 155.183 21.7594 155.183 26.4954V47.3594H144.303V27.9674C144.303 25.578 143.684 23.722 142.447 22.3994C141.21 21.0767 139.546 20.4154 137.455 20.4154C135.364 20.4154 133.7 21.0767 132.463 22.3994C131.226 23.722 130.607 25.578 130.607 27.9674V47.3594H119.663V-0.00062561H130.607V16.4474C131.716 14.8687 133.231 13.61 135.151 12.6714C137.071 11.7327 139.226 11.2634 141.615 11.2634ZM192.612 28.9274C192.612 29.9514 192.548 31.018 192.42 32.1274H167.652C167.823 34.346 168.527 36.0527 169.764 37.2474C171.044 38.3994 172.601 38.9754 174.436 38.9754C177.167 38.9754 179.065 37.8234 180.132 35.5194H191.78C191.183 37.866 190.095 39.978 188.516 41.8554C186.98 43.7327 185.039 45.2047 182.692 46.2714C180.345 47.338 177.721 47.8714 174.82 47.8714C171.321 47.8714 168.207 47.1247 165.476 45.6314C162.745 44.138 160.612 42.0047 159.076 39.2314C157.54 36.458 156.772 33.2154 156.772 29.5034C156.772 25.7914 157.519 22.5487 159.012 19.7754C160.548 17.002 162.681 14.8687 165.412 13.3754C168.143 11.882 171.279 11.1354 174.82 11.1354C178.276 11.1354 181.348 11.8607 184.036 13.3114C186.724 14.762 188.815 16.8314 190.308 19.5194C191.844 22.2074 192.612 25.3434 192.612 28.9274ZM181.412 26.0474C181.412 24.17 180.772 22.6767 179.492 21.5674C178.212 20.458 176.612 19.9034 174.692 19.9034C172.857 19.9034 171.3 20.4367 170.02 21.5034C168.783 22.57 168.015 24.0847 167.716 26.0474H181.412ZM192.369 29.5034C192.369 25.7914 193.116 22.5487 194.609 19.7754C196.145 17.002 198.257 14.8687 200.945 13.3754C203.676 11.882 206.791 11.1354 210.289 11.1354C214.769 11.1354 218.503 12.3087 221.489 14.6554C224.519 17.002 226.503 20.3087 227.441 24.5754H215.793C214.812 21.8447 212.913 20.4794 210.097 20.4794C208.092 20.4794 206.492 21.2687 205.297 22.8474C204.103 24.3834 203.505 26.602 203.505 29.5034C203.505 32.4047 204.103 34.6447 205.297 36.2234C206.492 37.7594 208.092 38.5274 210.097 38.5274C212.913 38.5274 214.812 37.162 215.793 34.4314H227.441C226.503 38.6127 224.519 41.898 221.489 44.2874C218.46 46.6767 214.727 47.8714 210.289 47.8714C206.791 47.8714 203.676 47.1247 200.945 45.6314C198.257 44.138 196.145 42.0047 194.609 39.2314C193.116 36.458 192.369 33.2154 192.369 29.5034ZM251.279 47.3594L240.399 32.3834V47.3594H229.455V-0.00062561H240.399V26.1754L251.215 11.6474H264.719L249.871 29.5674L264.847 47.3594H251.279Z" fill="black"/>
</svg>
