<svg width="1060" height="192" viewBox="0 0 1060 192" fill="none" xmlns="http://www.w3.org/2000/svg">
<path d="M139.007 9.7294V44.8014H91.3915V189.441H47.6155V44.8014H-0.000531197V9.7294H139.007ZM254.417 97.2814C264.828 99.5001 273.191 104.705 279.505 112.897C285.82 120.919 288.977 130.135 288.977 140.545C288.977 155.564 283.687 167.511 273.105 176.385C262.695 185.089 248.103 189.441 229.329 189.441H145.617V9.7294H226.513C244.775 9.7294 259.025 13.9107 269.265 22.2734C279.676 30.6361 284.881 41.9854 284.881 56.3214C284.881 66.9027 282.065 75.6921 276.433 82.6894C270.972 89.6867 263.633 94.5507 254.417 97.2814ZM189.393 82.4334H218.065C225.233 82.4334 230.695 80.8974 234.449 77.8254C238.375 74.5827 240.337 69.8894 240.337 63.7454C240.337 57.6014 238.375 52.9081 234.449 49.6654C230.695 46.4227 225.233 44.8014 218.065 44.8014H189.393V82.4334ZM221.649 154.113C228.988 154.113 234.62 152.492 238.545 149.249C242.641 145.836 244.689 140.972 244.689 134.657C244.689 128.343 242.556 123.393 238.289 119.809C234.193 116.225 228.476 114.433 221.137 114.433H189.393V154.113H221.649ZM291.583 99.3294C291.583 81.5801 295.423 65.7934 303.103 51.9694C310.783 37.9747 321.45 27.1374 335.103 19.4574C348.927 11.6067 364.543 7.6814 381.951 7.6814C403.285 7.6814 421.546 13.3134 436.735 24.5774C451.925 35.8414 462.079 51.2014 467.199 70.6574H419.071C415.487 63.1481 410.367 57.4307 403.711 53.5054C397.226 49.5801 389.802 47.6174 381.439 47.6174C367.957 47.6174 357.034 52.3107 348.671 61.6974C340.309 71.0841 336.127 83.6281 336.127 99.3294C336.127 115.031 340.309 127.575 348.671 136.961C357.034 146.348 367.957 151.041 381.439 151.041C389.802 151.041 397.226 149.079 403.711 145.153C410.367 141.228 415.487 135.511 419.071 128.001H467.199C462.079 147.457 451.925 162.817 436.735 174.081C421.546 185.175 403.285 190.721 381.951 190.721C364.543 190.721 348.927 186.881 335.103 179.201C321.45 171.351 310.783 160.513 303.103 146.689C295.423 132.865 291.583 117.079 291.583 99.3294ZM566.455 45.0574C582.839 45.0574 595.981 50.5187 605.879 61.4414C615.778 72.1934 620.727 87.0414 620.727 105.985V189.441H577.207V111.873C577.207 102.316 574.733 94.8921 569.783 89.6014C564.834 84.3107 558.178 81.6654 549.815 81.6654C541.453 81.6654 534.797 84.3107 529.847 89.6014C524.898 94.8921 522.423 102.316 522.423 111.873V189.441H478.647V0.00140381H522.423V65.7934C526.861 59.4787 532.919 54.4441 540.599 50.6894C548.279 46.9347 556.898 45.0574 566.455 45.0574ZM770.443 115.713C770.443 119.809 770.187 124.076 769.675 128.513H670.603C671.286 137.388 674.102 144.215 679.051 148.993C684.171 153.601 690.401 155.905 697.739 155.905C708.662 155.905 716.257 151.297 720.523 142.081H767.115C764.726 151.468 760.374 159.916 754.059 167.425C747.915 174.935 740.15 180.823 730.763 185.089C721.377 189.356 710.881 191.489 699.275 191.489C685.281 191.489 672.822 188.503 661.899 182.529C650.977 176.556 642.443 168.023 636.299 156.929C630.155 145.836 627.083 132.865 627.083 118.017C627.083 103.169 630.07 90.1987 636.043 79.1054C642.187 68.0121 650.721 59.4787 661.643 53.5054C672.566 47.5321 685.11 44.5454 699.275 44.5454C713.099 44.5454 725.387 47.4467 736.139 53.2494C746.891 59.0521 755.254 67.3294 761.227 78.0814C767.371 88.8334 770.443 101.377 770.443 115.713ZM725.643 104.193C725.643 96.6841 723.083 90.7107 717.963 86.2734C712.843 81.8361 706.443 79.6174 698.763 79.6174C691.425 79.6174 685.195 81.7507 680.075 86.0174C675.126 90.2841 672.054 96.3427 670.859 104.193H725.643ZM769.473 118.017C769.473 103.169 772.46 90.1987 778.433 79.1054C784.577 68.0121 793.025 59.4787 803.777 53.5054C814.7 47.5321 827.159 44.5454 841.153 44.5454C859.073 44.5454 874.007 49.2387 885.953 58.6254C898.071 68.0121 906.007 81.2387 909.761 98.3054H863.169C859.244 87.3827 851.649 81.9214 840.385 81.9214C832.364 81.9214 825.964 85.0787 821.185 91.3934C816.407 97.5374 814.017 106.412 814.017 118.017C814.017 129.623 816.407 138.583 821.185 144.897C825.964 151.041 832.364 154.113 840.385 154.113C851.649 154.113 859.244 148.652 863.169 137.729H909.761C906.007 154.455 898.071 167.596 885.953 177.153C873.836 186.711 858.903 191.489 841.153 191.489C827.159 191.489 814.7 188.503 803.777 182.529C793.025 176.556 784.577 168.023 778.433 156.929C772.46 145.836 769.473 132.865 769.473 118.017ZM1005.11 189.441L961.593 129.537V189.441H917.817V0.00140381H961.593V104.705L1004.86 46.5934H1058.87L999.481 118.273L1059.39 189.441H1005.11Z" fill="black"/>
</svg>
