<svg width="530" height="96" viewBox="0 0 530 96" fill="none" xmlns="http://www.w3.org/2000/svg">
<path d="M69.5037 4.86275V22.3988H45.6957V94.7188H23.8077V22.3988H-0.000265598V4.86275H69.5037ZM127.209 48.6387C132.414 49.7481 136.595 52.3507 139.753 56.4467C142.91 60.4574 144.489 65.0654 144.489 70.2707C144.489 77.7801 141.843 83.7534 136.553 88.1907C131.347 92.5427 124.051 94.7188 114.665 94.7188H72.8087V4.86275H113.257C122.387 4.86275 129.513 6.95341 134.633 11.1347C139.838 15.3161 142.441 20.9907 142.441 28.1587C142.441 33.4494 141.033 37.8441 138.217 41.3427C135.486 44.8414 131.817 47.2734 127.209 48.6387ZM94.6967 41.2147H109.033C112.617 41.2147 115.347 40.4467 117.225 38.9107C119.187 37.2894 120.169 34.9427 120.169 31.8707C120.169 28.7987 119.187 26.4521 117.225 24.8307C115.347 23.2094 112.617 22.3988 109.033 22.3988H94.6967V41.2147ZM110.825 77.0547C114.494 77.0547 117.31 76.2441 119.273 74.6227C121.321 72.9161 122.345 70.4841 122.345 67.3267C122.345 64.1694 121.278 61.6947 119.145 59.9027C117.097 58.1107 114.238 57.2147 110.569 57.2147H94.6967V77.0547H110.825ZM145.792 49.6627C145.792 40.7881 147.712 32.8947 151.552 25.9827C155.392 18.9854 160.725 13.5667 167.552 9.72675C174.464 5.80141 182.272 3.83875 190.976 3.83875C201.642 3.83875 210.773 6.65474 218.368 12.2867C225.962 17.9187 231.04 25.5987 233.6 35.3267H209.536C207.744 31.5721 205.184 28.7134 201.856 26.7507C198.613 24.7881 194.901 23.8067 190.72 23.8067C183.978 23.8067 178.517 26.1534 174.336 30.8467C170.154 35.5401 168.064 41.8121 168.064 49.6627C168.064 57.5134 170.154 63.7854 174.336 68.4787C178.517 73.1721 183.978 75.5187 190.72 75.5187C194.901 75.5187 198.613 74.5374 201.856 72.5747C205.184 70.6121 207.744 67.7534 209.536 63.9987H233.6C231.04 73.7267 225.962 81.4067 218.368 87.0387C210.773 92.5854 201.642 95.3588 190.976 95.3588C182.272 95.3588 174.464 93.4387 167.552 89.5987C160.725 85.6734 155.392 80.2547 151.552 73.3427C147.712 66.4307 145.792 58.5374 145.792 49.6627ZM283.228 22.5267C291.42 22.5267 297.99 25.2574 302.94 30.7188C307.889 36.0947 310.364 43.5187 310.364 52.9907V94.7188H288.604V55.9347C288.604 51.1561 287.366 47.4441 284.892 44.7987C282.417 42.1534 279.089 40.8307 274.908 40.8307C270.726 40.8307 267.398 42.1534 264.924 44.7987C262.449 47.4441 261.212 51.1561 261.212 55.9347V94.7188H239.324V-0.00125122H261.212V32.8947C263.43 29.7374 266.46 27.2201 270.3 25.3427C274.14 23.4654 278.449 22.5267 283.228 22.5267ZM385.222 57.8547C385.222 59.9027 385.094 62.0361 384.838 64.2547H335.302C335.643 68.6921 337.051 72.1054 339.526 74.4947C342.086 76.7987 345.2 77.9507 348.87 77.9507C354.331 77.9507 358.128 75.6467 360.262 71.0387H383.558C382.363 75.7321 380.187 79.9561 377.03 83.7107C373.958 87.4654 370.075 90.4094 365.382 92.5427C360.688 94.6761 355.44 95.7428 349.638 95.7428C342.64 95.7428 336.411 94.2494 330.95 91.2627C325.488 88.2761 321.222 84.0094 318.15 78.4627C315.078 72.9161 313.542 66.4307 313.542 59.0067C313.542 51.5827 315.035 45.0974 318.022 39.5507C321.094 34.0041 325.36 29.7374 330.822 26.7507C336.283 23.7641 342.555 22.2707 349.638 22.2707C356.55 22.2707 362.694 23.7214 368.07 26.6227C373.446 29.5241 377.627 33.6627 380.614 39.0387C383.686 44.4147 385.222 50.6867 385.222 57.8547ZM362.822 52.0947C362.822 48.3401 361.542 45.3534 358.982 43.1347C356.422 40.9161 353.222 39.8067 349.382 39.8067C345.712 39.8067 342.598 40.8734 340.038 43.0067C337.563 45.1401 336.027 48.1694 335.43 52.0947H362.822ZM384.737 59.0067C384.737 51.5827 386.23 45.0974 389.217 39.5507C392.289 34.0041 396.513 29.7374 401.889 26.7507C407.35 23.7641 413.579 22.2707 420.577 22.2707C429.537 22.2707 437.003 24.6174 442.977 29.3107C449.035 34.0041 453.003 40.6174 454.881 49.1507H431.585C429.622 43.6894 425.825 40.9587 420.193 40.9587C416.182 40.9587 412.982 42.5374 410.593 45.6947C408.203 48.7667 407.009 53.2041 407.009 59.0067C407.009 64.8094 408.203 69.2894 410.593 72.4467C412.982 75.5187 416.182 77.0547 420.193 77.0547C425.825 77.0547 429.622 74.3241 431.585 68.8627H454.881C453.003 77.2254 449.035 83.7961 442.977 88.5747C436.918 93.3534 429.451 95.7428 420.577 95.7428C413.579 95.7428 407.35 94.2494 401.889 91.2627C396.513 88.2761 392.289 84.0094 389.217 78.4627C386.23 72.9161 384.737 66.4307 384.737 59.0067ZM502.557 94.7188L480.797 64.7667V94.7188H458.909V-0.00125122H480.797V52.3507L502.429 23.2947H529.437L499.741 59.1347L529.693 94.7188H502.557Z" fill="black"/>
</svg>
